<?xml version='1.0' encoding='UTF-8'?>
<svg xmlns="http://www.w3.org/2000/svg" version="1.1" width="307" height="138" viewBox="0 0 307 138">
<!--
Rot z: -10.0, rot y: -20.0 of: View of network
[ 0, 0, 162, 85 ]
-->
<rect x="0.0" y="0.0" width="162.0" height="85.0" style="fill:none;stroke:black;stroke-width:1;"/>
<circle cx="130.6223989340087" cy="48.684099542111525" r="2.0" stroke-width="0" fill="rgb(255,7,151)"/>
<circle cx="30.766382856639673" cy="28.904540700864068" r="2.0" stroke-width="0" fill="rgb(0,4,255)"/>
<circle cx="56.89740746588111" cy="33.1287425144353" r="2.0" stroke-width="0" fill="rgb(0,4,255)"/>
<circle cx="43.27330924763131" cy="31.341732266037777" r="2.0" stroke-width="0" fill="rgb(6,6,255)"/>
<circle cx="28.878424809401942" cy="27.9307093845663" r="2.0" stroke-width="0" fill="rgb(122,19,255)"/>
<circle cx="67.42733140918959" cy="34.33414471524139" r="2.0" stroke-width="0" fill="rgb(204,14,255)"/>
<circle cx="73.50538733581394" cy="32.40622077820474" r="2.0" stroke-width="0" fill="rgb(255,14,77)"/>
<circle cx="64.18597893486812" cy="34.084605284667006" r="2.0" stroke-width="0" fill="rgb(0,14,255)"/>
<circle cx="97.86334767417019" cy="54.32796907449205" r="2.0" stroke-width="0" fill="rgb(0,4,255)"/>
<circle cx="96.94701375668525" cy="53.86062775314058" r="2.0" stroke-width="0" fill="rgb(255,13,147)"/>
<circle cx="96.3549849273357" cy="53.322809740438814" r="2.0" stroke-width="0" fill="rgb(255,32,121)"/>
<circle cx="92.16876975729092" cy="54.77028340300432" r="2.0" stroke-width="0" fill="rgb(171,18,255)"/>
<circle cx="92.45868218516344" cy="55.44645339460874" r="2.0" stroke-width="0" fill="rgb(255,16,105)"/>
<circle cx="95.27115274646954" cy="53.993739132771196" r="2.0" stroke-width="0" fill="rgb(23,3,255)"/>
<circle cx="97.52025330763038" cy="51.326737738339034" r="2.0" stroke-width="0" fill="rgb(7,5,255)"/>
<circle cx="69.80638498059254" cy="35.74074935437621" r="2.0" stroke-width="0" fill="rgb(44,2,255)"/>
<circle cx="93.37089811304591" cy="54.907386194561646" r="2.0" stroke-width="0" fill="rgb(255,9,117)"/>
<circle cx="95.33665771400578" cy="53.517574799904935" r="2.0" stroke-width="0" fill="rgb(255,12,225)"/>
<circle cx="75.62155796050979" cy="36.89923288520522" r="2.0" stroke-width="0" fill="rgb(255,194,0)"/>
<circle cx="85.85504073636456" cy="38.254234459707675" r="2.0" stroke-width="0" fill="rgb(255,32,19)"/>
<circle cx="89.5850764686775" cy="37.02111710784966" r="2.0" stroke-width="0" fill="rgb(255,4,228)"/>
<circle cx="112.26801635237928" cy="47.022773189938825" r="2.0" stroke-width="0" fill="rgb(0,2,255)"/>
<circle cx="118.79844770338245" cy="46.063507328761574" r="2.0" stroke-width="0" fill="rgb(0,3,255)"/>
<circle cx="102.45966907008572" cy="44.43931095717344" r="2.0" stroke-width="0" fill="rgb(0,7,255)"/>
<circle cx="108.80543786929083" cy="43.1876323343259" r="2.0" stroke-width="0" fill="rgb(0,4,255)"/>
<circle cx="107.0127203800493" cy="46.502424014489925" r="2.0" stroke-width="0" fill="rgb(255,1,58)"/>
<circle cx="113.35104090779328" cy="45.04675831230512" r="2.0" stroke-width="0" fill="rgb(255,1,78)"/>
<circle cx="102.90824304225481" cy="40.8970899475337" r="2.0" stroke-width="0" fill="rgb(255,3,54)"/>
<circle cx="108.64526723025868" cy="39.03061457980722" r="2.0" stroke-width="0" fill="rgb(255,10,51)"/>
<circle cx="71.87426044994106" cy="35.14469573726613" r="2.0" stroke-width="0" fill="rgb(255,4,120)"/>
<circle cx="81.37509337151491" cy="33.68330205810402" r="2.0" stroke-width="0" fill="rgb(0,10,255)"/>
<circle cx="77.44214535789536" cy="31.158916445713757" r="2.0" stroke-width="0" fill="rgb(255,14,198)"/>
<circle cx="91.40868685235228" cy="37.01357832293823" r="2.0" stroke-width="0" fill="rgb(0,4,255)"/>
<circle cx="112.32087204604258" cy="43.45649572450023" r="2.0" stroke-width="0" fill="rgb(0,4,255)"/>
<circle cx="117.57792924215772" cy="42.70089726050068" r="2.0" stroke-width="0" fill="rgb(0,3,255)"/>
<circle cx="112.87721561761242" cy="46.58078603741006" r="2.0" stroke-width="0" fill="rgb(37,4,255)"/>
<circle cx="117.93513631598644" cy="45.006456788318474" r="2.0" stroke-width="0" fill="rgb(27,1,255)"/>
<circle cx="117.76957904082309" cy="44.9502597376423" r="2.0" stroke-width="0" fill="rgb(255,23,51)"/>
<circle cx="122.19733467074526" cy="44.35006313090321" r="2.0" stroke-width="0" fill="rgb(255,34,0)"/>
<circle cx="131.7646566328219" cy="46.9972324371766" r="2.0" stroke-width="0" fill="rgb(255,3,165)"/>
<circle cx="135.0246342649153" cy="46.3290253491689" r="2.0" stroke-width="0" fill="rgb(255,2,127)"/>
<circle cx="129.79716387365576" cy="44.112145427594946" r="2.0" stroke-width="0" fill="rgb(111,21,255)"/>
<circle cx="132.310379455865" cy="41.78134881414999" r="2.0" stroke-width="0" fill="rgb(111,11,255)"/>
<circle cx="113.91907502672365" cy="43.58594736141384" r="2.0" stroke-width="0" fill="rgb(255,2,183)"/>
<circle cx="118.17652755158976" cy="42.65434471091275" r="2.0" stroke-width="0" fill="rgb(255,3,177)"/>
<circle cx="115.73632004271937" cy="44.11885275512762" r="2.0" stroke-width="0" fill="rgb(145,9,255)"/>
<circle cx="114.75004109561159" cy="47.61722781913922" r="2.0" stroke-width="0" fill="rgb(95,12,255)"/>
<circle cx="119.40435702166594" cy="48.540007290806386" r="2.0" stroke-width="0" fill="rgb(94,7,255)"/>
<circle cx="121.07054355613292" cy="47.84324230146231" r="2.0" stroke-width="0" fill="rgb(255,12,0)"/>
<circle cx="125.51059304528617" cy="47.53908807190433" r="2.0" stroke-width="0" fill="rgb(255,36,0)"/>
<circle cx="63.66982613164648" cy="34.51484079113975" r="2.0" stroke-width="0" fill="rgb(0,0,0)"/>
<circle cx="69.97873269483256" cy="33.267327749398675" r="2.0" stroke-width="0" fill="rgb(0,0,0)"/>
<circle cx="107.77949685431561" cy="49.30629221659632" r="2.0" stroke-width="0" fill="rgb(255,12,167)"/>
<circle cx="114.63201107389108" cy="46.988491309541246" r="2.0" stroke-width="0" fill="rgb(255,8,142)"/>
<circle cx="124.89849697542444" cy="48.17953419901329" r="2.0" stroke-width="0" fill="rgb(255,10,216)"/>
<circle cx="65.88456239168679" cy="33.523834810008715" r="2.0" stroke-width="0" fill="rgb(53,6,255)"/>
<circle cx="68.59965909595584" cy="32.97495676531777" r="2.0" stroke-width="0" fill="rgb(255,10,0)"/>
<circle cx="119.96202525406265" cy="46.54229005859988" r="2.0" stroke-width="0" fill="rgb(255,2,80)"/>
<circle cx="126.81101642481136" cy="48.44360811749588" r="2.0" stroke-width="0" fill="rgb(255,4,84)"/>
<circle cx="72.98756981350141" cy="35.090642337477334" r="2.0" stroke-width="0" fill="rgb(255,1,59)"/>
<circle cx="80.0204492622609" cy="35.72967992053488" r="2.0" stroke-width="0" fill="rgb(255,2,63)"/>
<circle cx="90.45809081732551" cy="35.86773189126933" r="2.0" stroke-width="0" fill="rgb(73,9,255)"/>
<circle cx="64.86438188694652" cy="47.302189070459576" r="2.0" stroke-width="0" fill="rgb(255,2,63)"/>
<circle cx="76.34545190169095" cy="43.22925628721952" r="2.0" stroke-width="0" fill="rgb(255,0,86)"/>
<circle cx="60.087390839124964" cy="47.9790274558337" r="2.0" stroke-width="0" fill="rgb(255,10,149)"/>
<circle cx="71.7096870893235" cy="45.31345320233159" r="2.0" stroke-width="0" fill="rgb(255,6,160)"/>
<circle cx="77.8633380501719" cy="45.73953513439044" r="2.0" stroke-width="0" fill="rgb(255,7,131)"/>
<circle cx="84.4569424813247" cy="42.6475632968548" r="2.0" stroke-width="0" fill="rgb(255,1,82)"/>
<circle cx="77.63086796443488" cy="46.239448823825995" r="2.0" stroke-width="0" fill="rgb(255,3,170)"/>
<circle cx="87.04354215294359" cy="43.873066263444166" r="2.0" stroke-width="0" fill="rgb(255,4,177)"/>
<circle cx="99.27817027742377" cy="40.80677557485789" r="2.0" stroke-width="0" fill="rgb(255,1,176)"/>
<circle cx="105.91422049329333" cy="38.48732802105537" r="2.0" stroke-width="0" fill="rgb(255,2,163)"/>
<circle cx="94.1638438368693" cy="50.76549282679349" r="2.0" stroke-width="0" fill="rgb(255,8,195)"/>
<circle cx="103.23412937766597" cy="48.75550734206183" r="2.0" stroke-width="0" fill="rgb(255,8,225)"/>
<circle cx="93.63206536474883" cy="42.42214106797119" r="2.0" stroke-width="0" fill="rgb(255,9,196)"/>
<circle cx="101.34572723864" cy="40.489408008597216" r="2.0" stroke-width="0" fill="rgb(240,16,255)"/>
<circle cx="93.25556001451744" cy="50.583166839952405" r="2.0" stroke-width="0" fill="rgb(255,8,175)"/>
<circle cx="103.4052989741709" cy="49.512703123978255" r="2.0" stroke-width="0" fill="rgb(255,16,141)"/>
<circle cx="97.43773738402442" cy="52.14598828597737" r="2.0" stroke-width="0" fill="rgb(255,27,0)"/>
<circle cx="104.92254405053461" cy="50.469938948320504" r="2.0" stroke-width="0" fill="rgb(255,33,3)"/>
<circle cx="101.11748114074415" cy="50.30518797179495" r="2.0" stroke-width="0" fill="rgb(255,4,169)"/>
<circle cx="108.78134331034363" cy="48.93931988542836" r="2.0" stroke-width="0" fill="rgb(255,7,209)"/>
<circle cx="117.24341164140483" cy="42.385820095859" r="2.0" stroke-width="0" fill="rgb(255,7,196)"/>
<circle cx="123.26633068430831" cy="42.61597792812246" r="2.0" stroke-width="0" fill="rgb(255,11,135)"/>
<circle cx="114.5411797464176" cy="48.30416778485505" r="2.0" stroke-width="0" fill="rgb(255,5,9)"/>
<circle cx="120.13612740212966" cy="47.220400504483315" r="2.0" stroke-width="0" fill="rgb(255,6,39)"/>
<circle cx="108.47831390417365" cy="49.80368004086815" r="2.0" stroke-width="0" fill="rgb(255,2,114)"/>
<circle cx="113.4664953404347" cy="49.71991242444058" r="2.0" stroke-width="0" fill="rgb(255,4,94)"/>
<circle cx="107.22042601630228" cy="52.011637954995955" r="2.0" stroke-width="0" fill="rgb(255,12,111)"/>
<circle cx="113.78678804357405" cy="51.160295412603986" r="2.0" stroke-width="0" fill="rgb(255,11,126)"/>
<circle cx="128.5477818354594" cy="46.99209314561881" r="2.0" stroke-width="0" fill="rgb(255,9,170)"/>
<circle cx="132.27390804813098" cy="46.5109193348966" r="2.0" stroke-width="0" fill="rgb(255,8,92)"/>
<circle cx="126.8884622151052" cy="47.42297336714444" r="2.0" stroke-width="0" fill="rgb(255,2,187)"/>
<circle cx="130.7269725454289" cy="46.998519524861145" r="2.0" stroke-width="0" fill="rgb(255,7,155)"/>
<circle cx="124.12569883932694" cy="46.90833364201386" r="2.0" stroke-width="0" fill="rgb(255,38,0)"/>
<circle cx="127.18633352156307" cy="46.664035436944545" r="2.0" stroke-width="0" fill="rgb(255,38,0)"/>
<circle cx="122.38104796269008" cy="46.86486285106647" r="2.0" stroke-width="0" fill="rgb(255,4,187)"/>
<circle cx="126.80194053140156" cy="47.477339534503194" r="2.0" stroke-width="0" fill="rgb(255,17,142)"/>
<circle cx="101.20140745491304" cy="47.48115288906798" r="2.0" stroke-width="0" fill="rgb(255,49,125)"/>
<circle cx="107.35981340168229" cy="45.96947957031521" r="2.0" stroke-width="0" fill="rgb(255,194,173)"/>
<circle cx="96.23378661753941" cy="42.33791842248003" r="2.0" stroke-width="0" fill="rgb(226,3,255)"/>
<circle cx="103.7265579825176" cy="40.30197659721199" r="2.0" stroke-width="0" fill="rgb(255,39,224)"/>
<circle cx="98.18201510953917" cy="44.1108506082476" r="2.0" stroke-width="0" fill="rgb(255,15,124)"/>
<circle cx="104.25357132444728" cy="42.88199450175091" r="2.0" stroke-width="0" fill="rgb(255,19,191)"/>
<circle cx="49.947836160089786" cy="30.877753917874987" r="2.0" stroke-width="0" fill="rgb(255,44,0)"/>
<circle cx="65.792794297277" cy="33.09993277223302" r="2.0" stroke-width="0" fill="rgb(255,24,0)"/>
<circle cx="32.635575693416826" cy="29.42917542973325" r="2.0" stroke-width="0" fill="rgb(0,146,255)"/>
<circle cx="58.87757493764997" cy="33.48401083648139" r="2.0" stroke-width="0" fill="rgb(0,255,184)"/>
<circle cx="74.06413224687883" cy="34.13930086436835" r="2.0" stroke-width="0" fill="rgb(0,127,255)"/>
<line x1="29.0978605420988" y1="44.70606546691574" x2="138.17842378874184" y2="65.17429725442639" style="stroke:green;stroke-width:0.5"/>
<line x1="33.19148666513975" y1="20.0" x2="142.27204991178277" y2="40.468231787510646" style="stroke:green;stroke-width:0.5"/>
<line x1="24.093626123040956" y1="20.0" x2="133.174189369684" y2="40.468231787510646" style="stroke:green;stroke-width:0.5"/>
<line x1="20.0" y1="44.70606546691574" x2="129.08056324664307" y2="65.17429725442639" style="stroke:green;stroke-width:0.5"/>
<line x1="29.0978605420988" y1="44.70606546691574" x2="33.19148666513975" y2="20.0" style="stroke:yellow;stroke-width:0.5"/>
<line x1="138.17842378874184" y1="65.17429725442639" x2="142.27204991178277" y2="40.468231787510646" style="stroke:yellow;stroke-width:0.5"/>
<line x1="20.0" y1="44.70606546691574" x2="24.093626123040956" y2="20.0" style="stroke:yellow;stroke-width:0.5"/>
<line x1="129.08056324664307" y1="65.17429725442639" x2="133.174189369684" y2="40.468231787510646" style="stroke:yellow;stroke-width:0.5"/>
<line x1="29.0978605420988" y1="44.70606546691574" x2="20.0" y2="44.70606546691574" style="stroke:red;stroke-width:0.5"/>
<line x1="138.17842378874184" y1="65.17429725442639" x2="129.08056324664307" y2="65.17429725442639" style="stroke:red;stroke-width:0.5"/>
<line x1="33.19148666513975" y1="20.0" x2="24.093626123040956" y2="20.0" style="stroke:red;stroke-width:0.5"/>
<line x1="142.27204991178277" y1="40.468231787510646" x2="133.174189369684" y2="40.468231787510646" style="stroke:red;stroke-width:0.5"/>
<!--
Rot z: 0.0, rot y: 90.0 of: Rot z: 90.0, rot y: 0.0 of: Rot z: 0.0, rot y: 90.0 of: View of network
[ 162, 0, 165, 74 ]
-->
<rect x="162.0" y="0.0" width="165.0" height="74.0" style="fill:none;stroke:black;stroke-width:1;"/>
<text x="187.0" y="49.0" fill="black" font-size="8px">
10.0 μm</text>
<circle cx="186.62290954589844" cy="32.99627876281738" r="2.0" stroke-width="0" fill="rgb(255,7,151)"/>
<circle cx="293.6107978820801" cy="29.9359359741211" r="2.0" stroke-width="0" fill="rgb(0,4,255)"/>
<circle cx="265.10082244873047" cy="28.845485687255863" r="2.0" stroke-width="0" fill="rgb(0,4,255)"/>
<circle cx="279.93577003479004" cy="29.53301429748536" r="2.0" stroke-width="0" fill="rgb(6,6,255)"/>
<circle cx="295.8718490600586" cy="30.25215911865235" r="2.0" stroke-width="0" fill="rgb(122,19,255)"/>
<circle cx="253.56387329101562" cy="28.03039360046387" r="2.0" stroke-width="0" fill="rgb(204,14,255)"/>
<circle cx="248.98719024658203" cy="32.09913635253906" r="2.0" stroke-width="0" fill="rgb(255,14,77)"/>
<circle cx="257.57992935180664" cy="29.636663436889652" r="2.0" stroke-width="0" fill="rgb(0,14,255)"/>
<circle cx="220.45287322998047" cy="34.33033752441406" r="2.0" stroke-width="0" fill="rgb(0,4,255)"/>
<circle cx="220.5008773803711" cy="31.558675765991214" r="2.0" stroke-width="0" fill="rgb(255,13,147)"/>
<circle cx="221.18275451660156" cy="31.4694938659668" r="2.0" stroke-width="0" fill="rgb(255,32,121)"/>
<circle cx="225.55847930908203" cy="32.13872146606445" r="2.0" stroke-width="0" fill="rgb(171,18,255)"/>
<circle cx="224.6778564453125" cy="30.857126235961918" r="2.0" stroke-width="0" fill="rgb(255,16,105)"/>
<circle cx="222.25416564941406" cy="31.61470413208008" r="2.0" stroke-width="0" fill="rgb(23,3,255)"/>
<circle cx="219.9579849243164" cy="30.492567062377933" r="2.0" stroke-width="0" fill="rgb(7,5,255)"/>
<circle cx="250.21226119995117" cy="26.31718254089356" r="2.0" stroke-width="0" fill="rgb(44,2,255)"/>
<circle cx="223.93536376953125" cy="31.1916618347168" r="2.0" stroke-width="0" fill="rgb(255,9,117)"/>
<circle cx="222.1598129272461" cy="31.312316894531254" r="2.0" stroke-width="0" fill="rgb(255,12,225)"/>
<circle cx="245.4252586364746" cy="30.5257682800293" r="2.0" stroke-width="0" fill="rgb(255,194,0)"/>
<circle cx="231.34912109375" cy="21.83242988586426" r="2.0" stroke-width="0" fill="rgb(255,32,19)"/>
<circle cx="227.77622985839844" cy="22.173063278198246" r="2.0" stroke-width="0" fill="rgb(255,4,228)"/>
<circle cx="203.20049285888672" cy="24.775981903076172" r="2.0" stroke-width="0" fill="rgb(0,2,255)"/>
<circle cx="199.8895492553711" cy="34.167890548706055" r="2.0" stroke-width="0" fill="rgb(0,3,255)"/>
<circle cx="213.17786407470703" cy="22.682209014892578" r="2.0" stroke-width="0" fill="rgb(0,7,255)"/>
<circle cx="211.43958282470703" cy="35.78005027770996" r="2.0" stroke-width="0" fill="rgb(0,4,255)"/>
<circle cx="208.57105255126953" cy="24.141557693481445" r="2.0" stroke-width="0" fill="rgb(255,1,58)"/>
<circle cx="206.62496185302734" cy="36.539039611816406" r="2.0" stroke-width="0" fill="rgb(255,1,78)"/>
<circle cx="212.8239974975586" cy="21.290468215942383" r="2.0" stroke-width="0" fill="rgb(255,3,54)"/>
<circle cx="212.57528686523438" cy="36.4663143157959" r="2.0" stroke-width="0" fill="rgb(255,10,51)"/>
<circle cx="250.07884979248047" cy="31.702285766601566" r="2.0" stroke-width="0" fill="rgb(255,4,120)"/>
<circle cx="240.95406341552734" cy="33.31599235534668" r="2.0" stroke-width="0" fill="rgb(0,10,255)"/>
<circle cx="244.95277404785156" cy="31.74972152709961" r="2.0" stroke-width="0" fill="rgb(255,14,198)"/>
<circle cx="230.44119262695312" cy="34.9361686706543" r="2.0" stroke-width="0" fill="rgb(0,4,255)"/>
<circle cx="203.52215576171875" cy="24.100217819213867" r="2.0" stroke-width="0" fill="rgb(0,4,255)"/>
<circle cx="201.62667846679688" cy="33.81665229797363" r="2.0" stroke-width="0" fill="rgb(0,3,255)"/>
<circle cx="202.26929473876953" cy="23.74512481689453" r="2.0" stroke-width="0" fill="rgb(37,4,255)"/>
<circle cx="201.05010986328125" cy="34.36944770812988" r="2.0" stroke-width="0" fill="rgb(27,1,255)"/>
<circle cx="198.28414154052734" cy="26.141496658325195" r="2.0" stroke-width="0" fill="rgb(255,23,51)"/>
<circle cx="195.97669219970703" cy="32.35915565490723" r="2.0" stroke-width="0" fill="rgb(255,34,0)"/>
<circle cx="183.94689178466797" cy="28.05308723449707" r="2.0" stroke-width="0" fill="rgb(255,3,165)"/>
<circle cx="182.0" cy="31.829349517822266" r="2.0" stroke-width="0" fill="rgb(255,2,127)"/>
<circle cx="185.13694763183594" cy="24.22292137145996" r="2.0" stroke-width="0" fill="rgb(111,21,255)"/>
<circle cx="186.11312866210938" cy="33.16531753540039" r="2.0" stroke-width="0" fill="rgb(111,11,255)"/>
<circle cx="202.3244857788086" cy="25.494430541992188" r="2.0" stroke-width="0" fill="rgb(255,2,183)"/>
<circle cx="200.62679290771484" cy="32.75474166870117" r="2.0" stroke-width="0" fill="rgb(255,3,177)"/>
<circle cx="200.11003875732422" cy="24.887866973876953" r="2.0" stroke-width="0" fill="rgb(145,9,255)"/>
<circle cx="200.79439544677734" cy="25.608243942260742" r="2.0" stroke-width="0" fill="rgb(95,12,255)"/>
<circle cx="198.8441390991211" cy="34.222652435302734" r="2.0" stroke-width="0" fill="rgb(94,7,255)"/>
<circle cx="194.43295288085938" cy="26.450105667114258" r="2.0" stroke-width="0" fill="rgb(255,12,0)"/>
<circle cx="192.09854888916016" cy="32.771928787231445" r="2.0" stroke-width="0" fill="rgb(255,36,0)"/>
<circle cx="257.439998626709" cy="27.94557571411133" r="2.0" stroke-width="0" fill="rgb(0,0,0)"/>
<circle cx="252.57516479492188" cy="32.21500778198242" r="2.0" stroke-width="0" fill="rgb(0,0,0)"/>
<circle cx="207.5434799194336" cy="24.875022888183594" r="2.0" stroke-width="0" fill="rgb(255,12,167)"/>
<circle cx="203.95172882080078" cy="33.76707649230957" r="2.0" stroke-width="0" fill="rgb(255,8,142)"/>
<circle cx="192.95745849609375" cy="33.688785552978516" r="2.0" stroke-width="0" fill="rgb(255,10,216)"/>
<circle cx="256.8521728515625" cy="32.300981521606445" r="2.0" stroke-width="0" fill="rgb(53,6,255)"/>
<circle cx="252.10096740722656" cy="26.71828079223633" r="2.0" stroke-width="0" fill="rgb(255,10,0)"/>
<circle cx="195.72792053222656" cy="26.191543579101562" r="2.0" stroke-width="0" fill="rgb(255,2,80)"/>
<circle cx="190.31082916259766" cy="32.02482032775879" r="2.0" stroke-width="0" fill="rgb(255,4,84)"/>
<circle cx="246.53932571411133" cy="25.05641555786133" r="2.0" stroke-width="0" fill="rgb(255,1,59)"/>
<circle cx="238.4417953491211" cy="23.337774276733402" r="2.0" stroke-width="0" fill="rgb(255,2,63)"/>
<circle cx="231.44033813476562" cy="34.38917922973633" r="2.0" stroke-width="0" fill="rgb(73,9,255)"/>
<circle cx="251.3072624206543" cy="20.523624420166023" r="2.0" stroke-width="0" fill="rgb(255,2,63)"/>
<circle cx="247.82987594604492" cy="42.417449951171875" r="2.0" stroke-width="0" fill="rgb(255,0,86)"/>
<circle cx="256.6860008239746" cy="21.890470504760746" r="2.0" stroke-width="0" fill="rgb(255,10,149)"/>
<circle cx="252.39185333251953" cy="42.600364685058594" r="2.0" stroke-width="0" fill="rgb(255,6,160)"/>
<circle cx="237.76788330078125" cy="20.0" r="2.0" stroke-width="0" fill="rgb(255,7,131)"/>
<circle cx="239.19095611572266" cy="41.75066661834717" r="2.0" stroke-width="0" fill="rgb(255,1,82)"/>
<circle cx="238.40442657470703" cy="21.33835601806641" r="2.0" stroke-width="0" fill="rgb(255,3,170)"/>
<circle cx="235.76895904541016" cy="40.36017990112305" r="2.0" stroke-width="0" fill="rgb(255,4,177)"/>
<circle cx="216.4807891845703" cy="20.83503532409668" r="2.0" stroke-width="0" fill="rgb(255,1,176)"/>
<circle cx="215.87132263183594" cy="37.413554191589355" r="2.0" stroke-width="0" fill="rgb(255,2,163)"/>
<circle cx="220.4878158569336" cy="21.88533973693848" r="2.0" stroke-width="0" fill="rgb(255,8,195)"/>
<circle cx="217.60247039794922" cy="39.381619453430176" r="2.0" stroke-width="0" fill="rgb(255,8,225)"/>
<circle cx="222.4119110107422" cy="21.656509399414066" r="2.0" stroke-width="0" fill="rgb(255,9,196)"/>
<circle cx="220.40215301513672" cy="37.66648006439209" r="2.0" stroke-width="0" fill="rgb(240,16,255)"/>
<circle cx="221.64557647705078" cy="22.371358871459964" r="2.0" stroke-width="0" fill="rgb(255,8,175)"/>
<circle cx="217.1325225830078" cy="38.93782329559326" r="2.0" stroke-width="0" fill="rgb(255,16,141)"/>
<circle cx="217.1883087158203" cy="22.92118263244629" r="2.0" stroke-width="0" fill="rgb(255,27,0)"/>
<circle cx="214.72872924804688" cy="37.13143730163574" r="2.0" stroke-width="0" fill="rgb(255,33,3)"/>
<circle cx="213.92332458496094" cy="23.67939567565918" r="2.0" stroke-width="0" fill="rgb(255,4,169)"/>
<circle cx="210.80579376220703" cy="36.72784900665283" r="2.0" stroke-width="0" fill="rgb(255,7,209)"/>
<circle cx="199.01113891601562" cy="25.388954162597656" r="2.0" stroke-width="0" fill="rgb(255,7,196)"/>
<circle cx="195.2942657470703" cy="32.74073028564453" r="2.0" stroke-width="0" fill="rgb(255,11,135)"/>
<circle cx="200.2731475830078" cy="23.876155853271484" r="2.0" stroke-width="0" fill="rgb(255,5,9)"/>
<circle cx="198.64458465576172" cy="35.16618728637695" r="2.0" stroke-width="0" fill="rgb(255,6,39)"/>
<circle cx="206.49085235595703" cy="24.222503662109375" r="2.0" stroke-width="0" fill="rgb(255,2,114)"/>
<circle cx="205.96056365966797" cy="37.286956787109375" r="2.0" stroke-width="0" fill="rgb(255,4,94)"/>
<circle cx="207.65586853027344" cy="24.864574432373047" r="2.0" stroke-width="0" fill="rgb(255,12,111)"/>
<circle cx="204.7819061279297" cy="35.632938385009766" r="2.0" stroke-width="0" fill="rgb(255,11,126)"/>
<circle cx="187.14808654785156" cy="27.57597541809082" r="2.0" stroke-width="0" fill="rgb(255,9,170)"/>
<circle cx="184.83980560302734" cy="31.797548294067383" r="2.0" stroke-width="0" fill="rgb(255,8,92)"/>
<circle cx="189.10191345214844" cy="28.384098052978516" r="2.0" stroke-width="0" fill="rgb(255,2,187)"/>
<circle cx="186.34122467041016" cy="31.699583053588867" r="2.0" stroke-width="0" fill="rgb(255,7,155)"/>
<circle cx="191.08077239990234" cy="25.577741622924805" r="2.0" stroke-width="0" fill="rgb(255,38,0)"/>
<circle cx="190.55929565429688" cy="32.95323944091797" r="2.0" stroke-width="0" fill="rgb(255,38,0)"/>
<circle cx="193.22014617919922" cy="26.42422103881836" r="2.0" stroke-width="0" fill="rgb(255,4,187)"/>
<circle cx="190.30751037597656" cy="31.520912170410156" r="2.0" stroke-width="0" fill="rgb(255,17,142)"/>
<circle cx="213.44837188720703" cy="21.231611251831055" r="2.0" stroke-width="0" fill="rgb(255,49,125)"/>
<circle cx="213.40478515625" cy="38.38364791870117" r="2.0" stroke-width="0" fill="rgb(255,194,173)"/>
<circle cx="219.4048309326172" cy="20.833293914794925" r="2.0" stroke-width="0" fill="rgb(226,3,255)"/>
<circle cx="217.86245727539062" cy="37.451361656188965" r="2.0" stroke-width="0" fill="rgb(255,39,224)"/>
<circle cx="217.5234375" cy="22.139610290527344" r="2.0" stroke-width="0" fill="rgb(255,15,124)"/>
<circle cx="216.50605010986328" cy="36.45795822143555" r="2.0" stroke-width="0" fill="rgb(255,19,191)"/>
<circle cx="273.2552185058594" cy="30.185434341430668" r="2.0" stroke-width="0" fill="rgb(255,44,0)"/>
<circle cx="255.32593536376953" cy="27.569316864013675" r="2.0" stroke-width="0" fill="rgb(255,24,0)"/>
<circle cx="291.4227132797241" cy="29.550798416137702" r="2.0" stroke-width="0" fill="rgb(0,146,255)"/>
<circle cx="262.7394218444824" cy="28.219238281250004" r="2.0" stroke-width="0" fill="rgb(0,255,184)"/>
<circle cx="248.16980361938477" cy="32.29199981689453" r="2.0" stroke-width="0" fill="rgb(0,127,255)"/>
<line x1="307.8718490600586" y1="54.6003646850586" x2="297.8718490600586" y2="54.6003646850586" style="stroke:green;stroke-width:1.0"/>
<circle cx="307.8718490600586" cy="54.6003646850586" r="0.5" stroke-width="0" fill="yellow"/>
<line x1="307.8718490600586" y1="54.6003646850586" x2="307.8718490600586" y2="44.6003646850586" style="stroke:red;stroke-width:1.0"/>
<!--
Rot z: 0.0, rot y: 90.0 of: View of network
[ 0, 85, 74, 73 ]
-->
<rect x="0.0" y="85.0" width="74.0" height="73.0" style="fill:none;stroke:black;stroke-width:1;"/>
<circle cx="41.60408592224122" cy="112.51040840148926" r="2.0" stroke-width="0" fill="rgb(255,7,151)"/>
<circle cx="44.6644287109375" cy="111.29056930541992" r="2.0" stroke-width="0" fill="rgb(0,4,255)"/>
<circle cx="45.754878997802734" cy="110.55285835266113" r="2.0" stroke-width="0" fill="rgb(0,4,255)"/>
<circle cx="45.06735038757324" cy="111.35408210754395" r="2.0" stroke-width="0" fill="rgb(6,6,255)"/>
<circle cx="44.34820556640625" cy="110.70039939880371" r="2.0" stroke-width="0" fill="rgb(122,19,255)"/>
<circle cx="46.56997108459473" cy="109.74258041381836" r="2.0" stroke-width="0" fill="rgb(204,14,255)"/>
<circle cx="42.50122833251953" cy="106.9779224395752" r="2.0" stroke-width="0" fill="rgb(255,14,77)"/>
<circle cx="44.963701248168945" cy="110.19733047485352" r="2.0" stroke-width="0" fill="rgb(0,14,255)"/>
<circle cx="40.27002716064453" cy="124.2064790725708" r="2.0" stroke-width="0" fill="rgb(0,4,255)"/>
<circle cx="43.04168891906738" cy="123.74039268493652" r="2.0" stroke-width="0" fill="rgb(255,13,147)"/>
<circle cx="43.1308708190918" cy="123.3145112991333" r="2.0" stroke-width="0" fill="rgb(255,32,121)"/>
<circle cx="42.46164321899414" cy="125.5558729171753" r="2.0" stroke-width="0" fill="rgb(171,18,255)"/>
<circle cx="43.74323844909668" cy="126.08719635009766" r="2.0" stroke-width="0" fill="rgb(255,16,105)"/>
<circle cx="42.985660552978516" cy="124.1847095489502" r="2.0" stroke-width="0" fill="rgb(23,3,255)"/>
<circle cx="44.107797622680664" cy="121.07168674468994" r="2.0" stroke-width="0" fill="rgb(7,5,255)"/>
<circle cx="48.28318214416504" cy="110.57990455627441" r="2.0" stroke-width="0" fill="rgb(44,2,255)"/>
<circle cx="43.4087028503418" cy="125.40889167785645" r="2.0" stroke-width="0" fill="rgb(255,9,117)"/>
<circle cx="43.288047790527344" cy="123.68456268310547" r="2.0" stroke-width="0" fill="rgb(255,12,225)"/>
<circle cx="44.0745964050293" cy="110.91218185424805" r="2.0" stroke-width="0" fill="rgb(255,194,0)"/>
<circle cx="52.767934799194336" cy="109.80608367919922" r="2.0" stroke-width="0" fill="rgb(255,32,19)"/>
<circle cx="52.42730140686035" cy="107.92394638061523" r="2.0" stroke-width="0" fill="rgb(255,4,228)"/>
<circle cx="49.82438278198243" cy="113.74652862548828" r="2.0" stroke-width="0" fill="rgb(0,2,255)"/>
<circle cx="40.432474136352546" cy="112.18865585327148" r="2.0" stroke-width="0" fill="rgb(0,3,255)"/>
<circle cx="51.91815567016602" cy="112.88249206542969" r="2.0" stroke-width="0" fill="rgb(0,7,255)"/>
<circle cx="38.82031440734864" cy="111.30499839782715" r="2.0" stroke-width="0" fill="rgb(0,4,255)"/>
<circle cx="50.458806991577156" cy="114.16512680053711" r="2.0" stroke-width="0" fill="rgb(255,1,58)"/>
<circle cx="38.061325073242195" cy="112.34385681152344" r="2.0" stroke-width="0" fill="rgb(255,1,78)"/>
<circle cx="53.30989646911622" cy="109.22323036193848" r="2.0" stroke-width="0" fill="rgb(255,3,54)"/>
<circle cx="38.1340503692627" cy="107.28410720825195" r="2.0" stroke-width="0" fill="rgb(255,10,51)"/>
<circle cx="42.89807891845703" cy="109.95113182067871" r="2.0" stroke-width="0" fill="rgb(255,4,120)"/>
<circle cx="41.284372329711914" cy="106.85824775695801" r="2.0" stroke-width="0" fill="rgb(0,10,255)"/>
<circle cx="42.850643157958984" cy="105.0" r="2.0" stroke-width="0" fill="rgb(255,14,198)"/>
<circle cx="39.6641960144043" cy="108.38619613647461" r="2.0" stroke-width="0" fill="rgb(0,4,255)"/>
<circle cx="50.500146865844734" cy="110.18195343017578" r="2.0" stroke-width="0" fill="rgb(0,4,255)"/>
<circle cx="40.78371238708497" cy="109.08047485351562" r="2.0" stroke-width="0" fill="rgb(0,3,255)"/>
<circle cx="50.85523986816407" cy="113.1335277557373" r="2.0" stroke-width="0" fill="rgb(37,4,255)"/>
<circle cx="40.23091697692872" cy="111.31993675231934" r="2.0" stroke-width="0" fill="rgb(27,1,255)"/>
<circle cx="48.458868026733406" cy="110.7751579284668" r="2.0" stroke-width="0" fill="rgb(255,23,51)"/>
<circle cx="42.241209030151374" cy="109.75883674621582" r="2.0" stroke-width="0" fill="rgb(255,34,0)"/>
<circle cx="46.54727745056153" cy="110.32566452026367" r="2.0" stroke-width="0" fill="rgb(255,3,165)"/>
<circle cx="42.771015167236335" cy="109.30385971069336" r="2.0" stroke-width="0" fill="rgb(255,2,127)"/>
<circle cx="50.37744331359864" cy="107.60590934753418" r="2.0" stroke-width="0" fill="rgb(111,21,255)"/>
<circle cx="41.43504714965821" cy="105.41128349304199" r="2.0" stroke-width="0" fill="rgb(111,11,255)"/>
<circle cx="49.10593414306641" cy="110.10222053527832" r="2.0" stroke-width="0" fill="rgb(255,2,183)"/>
<circle cx="41.84562301635743" cy="108.85689735412598" r="2.0" stroke-width="0" fill="rgb(255,3,177)"/>
<circle cx="49.71249771118165" cy="110.25288009643555" r="2.0" stroke-width="0" fill="rgb(145,9,255)"/>
<circle cx="48.99212074279786" cy="113.92589378356934" r="2.0" stroke-width="0" fill="rgb(95,12,255)"/>
<circle cx="40.37771224975587" cy="114.5190258026123" r="2.0" stroke-width="0" fill="rgb(94,7,255)"/>
<circle cx="48.15025901794434" cy="113.03370094299316" r="2.0" stroke-width="0" fill="rgb(255,12,0)"/>
<circle cx="41.828435897827156" cy="112.31323623657227" r="2.0" stroke-width="0" fill="rgb(255,36,0)"/>
<circle cx="46.654788970947266" cy="110.60952949523926" r="2.0" stroke-width="0" fill="rgb(0,0,0)"/>
<circle cx="42.38535690307617" cy="108.48497009277344" r="2.0" stroke-width="0" fill="rgb(0,0,0)"/>
<circle cx="49.72534179687501" cy="116.8310604095459" r="2.0" stroke-width="0" fill="rgb(255,12,167)"/>
<circle cx="40.83328819274903" cy="113.84418106079102" r="2.0" stroke-width="0" fill="rgb(255,8,142)"/>
<circle cx="40.911579132080085" cy="113.11501121520996" r="2.0" stroke-width="0" fill="rgb(255,10,216)"/>
<circle cx="42.29938316345215" cy="109.49958610534668" r="2.0" stroke-width="0" fill="rgb(53,6,255)"/>
<circle cx="47.882083892822266" cy="108.1044750213623" r="2.0" stroke-width="0" fill="rgb(255,10,0)"/>
<circle cx="48.40882110595704" cy="111.9410171508789" r="2.0" stroke-width="0" fill="rgb(255,2,80)"/>
<circle cx="42.57554435729981" cy="112.9164867401123" r="2.0" stroke-width="0" fill="rgb(255,4,84)"/>
<circle cx="49.543949127197266" cy="109.27213096618652" r="2.0" stroke-width="0" fill="rgb(255,1,59)"/>
<circle cx="51.262590408325195" cy="108.49321365356445" r="2.0" stroke-width="0" fill="rgb(255,2,63)"/>
<circle cx="40.211185455322266" cy="107.39884948730469" r="2.0" stroke-width="0" fill="rgb(73,9,255)"/>
<circle cx="54.07674026489258" cy="122.5127763748169" r="2.0" stroke-width="0" fill="rgb(255,2,63)"/>
<circle cx="32.18291473388672" cy="117.76385498046875" r="2.0" stroke-width="0" fill="rgb(255,0,86)"/>
<circle cx="52.70989418029785" cy="124.1484727859497" r="2.0" stroke-width="0" fill="rgb(255,10,149)"/>
<circle cx="32.0" cy="120.68460369110107" r="2.0" stroke-width="0" fill="rgb(255,6,160)"/>
<circle cx="54.6003646850586" cy="118.53865814208984" r="2.0" stroke-width="0" fill="rgb(255,7,131)"/>
<circle cx="32.849698066711426" cy="115.6499137878418" r="2.0" stroke-width="0" fill="rgb(255,1,82)"/>
<circle cx="53.26200866699219" cy="119.15852355957031" r="2.0" stroke-width="0" fill="rgb(255,3,170)"/>
<circle cx="34.24018478393555" cy="116.29093170166016" r="2.0" stroke-width="0" fill="rgb(255,4,177)"/>
<circle cx="53.76532936096192" cy="109.77631378173828" r="2.0" stroke-width="0" fill="rgb(255,1,176)"/>
<circle cx="37.186810493469245" cy="107.31361961364746" r="2.0" stroke-width="0" fill="rgb(255,2,163)"/>
<circle cx="52.71502494812012" cy="120.59520721435547" r="2.0" stroke-width="0" fill="rgb(255,8,195)"/>
<circle cx="35.218745231628425" cy="118.04545021057129" r="2.0" stroke-width="0" fill="rgb(255,8,225)"/>
<circle cx="52.94385528564453" cy="112.46241569519043" r="2.0" stroke-width="0" fill="rgb(255,9,196)"/>
<circle cx="36.93388462066651" cy="110.14549255371094" r="2.0" stroke-width="0" fill="rgb(240,16,255)"/>
<circle cx="52.22900581359863" cy="120.61421298980713" r="2.0" stroke-width="0" fill="rgb(255,8,175)"/>
<circle cx="35.66254138946534" cy="118.7314624786377" r="2.0" stroke-width="0" fill="rgb(255,16,141)"/>
<circle cx="51.67918205261231" cy="121.41520690917969" r="2.0" stroke-width="0" fill="rgb(255,27,0)"/>
<circle cx="37.46892738342286" cy="119.27961158752441" r="2.0" stroke-width="0" fill="rgb(255,33,3)"/>
<circle cx="50.92096900939942" cy="118.97030448913574" r="2.0" stroke-width="0" fill="rgb(255,4,169)"/>
<circle cx="37.87251567840577" cy="117.03366088867188" r="2.0" stroke-width="0" fill="rgb(255,7,209)"/>
<circle cx="49.211410522460945" cy="108.29934692382812" r="2.0" stroke-width="0" fill="rgb(255,7,196)"/>
<circle cx="41.85963439941407" cy="107.87767028808594" r="2.0" stroke-width="0" fill="rgb(255,11,135)"/>
<circle cx="50.72420883178712" cy="114.53152084350586" r="2.0" stroke-width="0" fill="rgb(255,5,9)"/>
<circle cx="39.43417739868165" cy="113.14387512207031" r="2.0" stroke-width="0" fill="rgb(255,6,39)"/>
<circle cx="50.377861022949226" cy="117.15051460266113" r="2.0" stroke-width="0" fill="rgb(255,2,114)"/>
<circle cx="37.313407897949226" cy="116.97195053100586" r="2.0" stroke-width="0" fill="rgb(255,4,94)"/>
<circle cx="49.735790252685554" cy="119.59795761108398" r="2.0" stroke-width="0" fill="rgb(255,12,111)"/>
<circle cx="38.967426300048835" cy="118.22672462463379" r="2.0" stroke-width="0" fill="rgb(255,11,126)"/>
<circle cx="47.02438926696778" cy="110.88490295410156" r="2.0" stroke-width="0" fill="rgb(255,9,170)"/>
<circle cx="42.80281639099122" cy="109.98929405212402" r="2.0" stroke-width="0" fill="rgb(255,8,92)"/>
<circle cx="46.216266632080085" cy="111.66694259643555" r="2.0" stroke-width="0" fill="rgb(255,2,187)"/>
<circle cx="42.900781631469734" cy="110.7491569519043" r="2.0" stroke-width="0" fill="rgb(255,7,155)"/>
<circle cx="49.022623062133796" cy="111.49328994750977" r="2.0" stroke-width="0" fill="rgb(255,38,0)"/>
<circle cx="41.64712524414063" cy="111.15327262878418" r="2.0" stroke-width="0" fill="rgb(255,38,0)"/>
<circle cx="48.17614364624024" cy="111.82637786865234" r="2.0" stroke-width="0" fill="rgb(255,4,187)"/>
<circle cx="43.079452514648445" cy="111.93472671508789" r="2.0" stroke-width="0" fill="rgb(255,17,142)"/>
<circle cx="53.368753433227546" cy="116.01895713806152" r="2.0" stroke-width="0" fill="rgb(255,49,125)"/>
<circle cx="36.21671676635743" cy="114.47627830505371" r="2.0" stroke-width="0" fill="rgb(255,194,173)"/>
<circle cx="53.76707077026367" cy="111.84666442871094" r="2.0" stroke-width="0" fill="rgb(226,3,255)"/>
<circle cx="37.149003028869636" cy="109.50735282897949" r="2.0" stroke-width="0" fill="rgb(255,39,224)"/>
<circle cx="52.46075439453126" cy="113.31520652770996" r="2.0" stroke-width="0" fill="rgb(255,15,124)"/>
<circle cx="38.142406463623054" cy="111.88800048828125" r="2.0" stroke-width="0" fill="rgb(255,19,191)"/>
<circle cx="44.41493034362793" cy="109.70498466491699" r="2.0" stroke-width="0" fill="rgb(255,44,0)"/>
<circle cx="47.03104782104492" cy="108.80002784729004" r="2.0" stroke-width="0" fill="rgb(255,24,0)"/>
<circle cx="45.0495662689209" cy="111.43747901916504" r="2.0" stroke-width="0" fill="rgb(0,146,255)"/>
<circle cx="46.381126403808594" cy="110.49722862243652" r="2.0" stroke-width="0" fill="rgb(0,255,184)"/>
<circle cx="42.30836486816406" cy="108.5936107635498" r="2.0" stroke-width="0" fill="rgb(0,127,255)"/>
<circle cx="20.0" cy="138.08719635009766" r="0.5" stroke-width="0" fill="green"/>
<line x1="20.0" y1="138.08719635009766" x2="20.0" y2="128.08719635009766" style="stroke:yellow;stroke-width:1.0"/>
<line x1="20.0" y1="138.08719635009766" x2="30.0" y2="138.08719635009766" style="stroke:red;stroke-width:1.0"/>
<!--
Rot z: 0.0, rot y: 0.0 of: View of network
[ 162, 74, 165, 73 ]
-->
<rect x="162.0" y="74.0" width="165.0" height="73.0" style="fill:none;stroke:black;stroke-width:1;"/>
<circle cx="303.24893951416016" cy="101.51040840148926" r="2.0" stroke-width="0" fill="rgb(255,7,151)"/>
<circle cx="196.26105117797852" cy="100.29056930541992" r="2.0" stroke-width="0" fill="rgb(0,4,255)"/>
<circle cx="224.77102661132812" cy="99.55285835266113" r="2.0" stroke-width="0" fill="rgb(0,4,255)"/>
<circle cx="209.93607902526855" cy="100.35408210754395" r="2.0" stroke-width="0" fill="rgb(6,6,255)"/>
<circle cx="194.0" cy="99.70039939880371" r="2.0" stroke-width="0" fill="rgb(122,19,255)"/>
<circle cx="236.30797576904297" cy="98.74258041381836" r="2.0" stroke-width="0" fill="rgb(204,14,255)"/>
<circle cx="240.88465881347656" cy="95.9779224395752" r="2.0" stroke-width="0" fill="rgb(255,14,77)"/>
<circle cx="232.29191970825195" cy="99.19733047485352" r="2.0" stroke-width="0" fill="rgb(0,14,255)"/>
<circle cx="269.4189758300781" cy="113.2064790725708" r="2.0" stroke-width="0" fill="rgb(0,4,255)"/>
<circle cx="269.3709716796875" cy="112.74039268493652" r="2.0" stroke-width="0" fill="rgb(255,13,147)"/>
<circle cx="268.68909454345703" cy="112.3145112991333" r="2.0" stroke-width="0" fill="rgb(255,32,121)"/>
<circle cx="264.31336975097656" cy="114.5558729171753" r="2.0" stroke-width="0" fill="rgb(171,18,255)"/>
<circle cx="265.1939926147461" cy="115.08719635009766" r="2.0" stroke-width="0" fill="rgb(255,16,105)"/>
<circle cx="267.61768341064453" cy="113.1847095489502" r="2.0" stroke-width="0" fill="rgb(23,3,255)"/>
<circle cx="269.9138641357422" cy="110.07168674468994" r="2.0" stroke-width="0" fill="rgb(7,5,255)"/>
<circle cx="239.65958786010742" cy="99.57990455627441" r="2.0" stroke-width="0" fill="rgb(44,2,255)"/>
<circle cx="265.93648529052734" cy="114.40889167785645" r="2.0" stroke-width="0" fill="rgb(255,9,117)"/>
<circle cx="267.7120361328125" cy="112.68456268310547" r="2.0" stroke-width="0" fill="rgb(255,12,225)"/>
<circle cx="244.44659042358398" cy="99.91218185424805" r="2.0" stroke-width="0" fill="rgb(255,194,0)"/>
<circle cx="258.5227279663086" cy="98.80608367919922" r="2.0" stroke-width="0" fill="rgb(255,32,19)"/>
<circle cx="262.09561920166016" cy="96.92394638061523" r="2.0" stroke-width="0" fill="rgb(255,4,228)"/>
<circle cx="286.6713562011719" cy="102.74652862548828" r="2.0" stroke-width="0" fill="rgb(0,2,255)"/>
<circle cx="289.9822998046875" cy="101.18865585327148" r="2.0" stroke-width="0" fill="rgb(0,3,255)"/>
<circle cx="276.69398498535156" cy="101.88249206542969" r="2.0" stroke-width="0" fill="rgb(0,7,255)"/>
<circle cx="278.43226623535156" cy="100.30499839782715" r="2.0" stroke-width="0" fill="rgb(0,4,255)"/>
<circle cx="281.30079650878906" cy="103.16512680053711" r="2.0" stroke-width="0" fill="rgb(255,1,58)"/>
<circle cx="283.24688720703125" cy="101.34385681152344" r="2.0" stroke-width="0" fill="rgb(255,1,78)"/>
<circle cx="277.0478515625" cy="98.22323036193848" r="2.0" stroke-width="0" fill="rgb(255,3,54)"/>
<circle cx="277.2965621948242" cy="96.28410720825195" r="2.0" stroke-width="0" fill="rgb(255,10,51)"/>
<circle cx="239.79299926757812" cy="98.95113182067871" r="2.0" stroke-width="0" fill="rgb(255,4,120)"/>
<circle cx="248.91778564453125" cy="95.85824775695801" r="2.0" stroke-width="0" fill="rgb(0,10,255)"/>
<circle cx="244.91907501220703" cy="94.0" r="2.0" stroke-width="0" fill="rgb(255,14,198)"/>
<circle cx="259.43065643310547" cy="97.38619613647461" r="2.0" stroke-width="0" fill="rgb(0,4,255)"/>
<circle cx="286.34969329833984" cy="99.18195343017578" r="2.0" stroke-width="0" fill="rgb(0,4,255)"/>
<circle cx="288.2451705932617" cy="98.08047485351562" r="2.0" stroke-width="0" fill="rgb(0,3,255)"/>
<circle cx="287.60255432128906" cy="102.1335277557373" r="2.0" stroke-width="0" fill="rgb(37,4,255)"/>
<circle cx="288.82173919677734" cy="100.31993675231934" r="2.0" stroke-width="0" fill="rgb(27,1,255)"/>
<circle cx="291.58770751953125" cy="99.7751579284668" r="2.0" stroke-width="0" fill="rgb(255,23,51)"/>
<circle cx="293.89515686035156" cy="98.75883674621582" r="2.0" stroke-width="0" fill="rgb(255,34,0)"/>
<circle cx="305.9249572753906" cy="99.32566452026367" r="2.0" stroke-width="0" fill="rgb(255,3,165)"/>
<circle cx="307.8718490600586" cy="98.30385971069336" r="2.0" stroke-width="0" fill="rgb(255,2,127)"/>
<circle cx="304.73490142822266" cy="96.60590934753418" r="2.0" stroke-width="0" fill="rgb(111,21,255)"/>
<circle cx="303.7587203979492" cy="94.41128349304199" r="2.0" stroke-width="0" fill="rgb(111,11,255)"/>
<circle cx="287.54736328125" cy="99.10222053527832" r="2.0" stroke-width="0" fill="rgb(255,2,183)"/>
<circle cx="289.24505615234375" cy="97.85689735412598" r="2.0" stroke-width="0" fill="rgb(255,3,177)"/>
<circle cx="289.7618103027344" cy="99.25288009643555" r="2.0" stroke-width="0" fill="rgb(145,9,255)"/>
<circle cx="289.07745361328125" cy="102.92589378356934" r="2.0" stroke-width="0" fill="rgb(95,12,255)"/>
<circle cx="291.0277099609375" cy="103.5190258026123" r="2.0" stroke-width="0" fill="rgb(94,7,255)"/>
<circle cx="295.4388961791992" cy="102.03370094299316" r="2.0" stroke-width="0" fill="rgb(255,12,0)"/>
<circle cx="297.77330017089844" cy="101.31323623657227" r="2.0" stroke-width="0" fill="rgb(255,36,0)"/>
<circle cx="232.4318504333496" cy="99.60952949523926" r="2.0" stroke-width="0" fill="rgb(0,0,0)"/>
<circle cx="237.29668426513672" cy="97.48497009277344" r="2.0" stroke-width="0" fill="rgb(0,0,0)"/>
<circle cx="282.328369140625" cy="105.8310604095459" r="2.0" stroke-width="0" fill="rgb(255,12,167)"/>
<circle cx="285.9201202392578" cy="102.84418106079102" r="2.0" stroke-width="0" fill="rgb(255,8,142)"/>
<circle cx="296.91439056396484" cy="102.11501121520996" r="2.0" stroke-width="0" fill="rgb(255,10,216)"/>
<circle cx="233.0196762084961" cy="98.49958610534668" r="2.0" stroke-width="0" fill="rgb(53,6,255)"/>
<circle cx="237.77088165283203" cy="97.1044750213623" r="2.0" stroke-width="0" fill="rgb(255,10,0)"/>
<circle cx="294.14392852783203" cy="100.9410171508789" r="2.0" stroke-width="0" fill="rgb(255,2,80)"/>
<circle cx="299.56101989746094" cy="101.9164867401123" r="2.0" stroke-width="0" fill="rgb(255,4,84)"/>
<circle cx="243.33252334594727" cy="98.27213096618652" r="2.0" stroke-width="0" fill="rgb(255,1,59)"/>
<circle cx="251.4300537109375" cy="97.49321365356445" r="2.0" stroke-width="0" fill="rgb(255,2,63)"/>
<circle cx="258.43151092529297" cy="96.39884948730469" r="2.0" stroke-width="0" fill="rgb(73,9,255)"/>
<circle cx="238.5645866394043" cy="111.5127763748169" r="2.0" stroke-width="0" fill="rgb(255,2,63)"/>
<circle cx="242.04197311401367" cy="106.76385498046875" r="2.0" stroke-width="0" fill="rgb(255,0,86)"/>
<circle cx="233.18584823608398" cy="113.1484727859497" r="2.0" stroke-width="0" fill="rgb(255,10,149)"/>
<circle cx="237.47999572753906" cy="109.68460369110107" r="2.0" stroke-width="0" fill="rgb(255,6,160)"/>
<circle cx="252.10396575927734" cy="107.53865814208984" r="2.0" stroke-width="0" fill="rgb(255,7,131)"/>
<circle cx="250.68089294433594" cy="104.6499137878418" r="2.0" stroke-width="0" fill="rgb(255,1,82)"/>
<circle cx="251.46742248535156" cy="108.15852355957031" r="2.0" stroke-width="0" fill="rgb(255,3,170)"/>
<circle cx="254.10289001464844" cy="105.29093170166016" r="2.0" stroke-width="0" fill="rgb(255,4,177)"/>
<circle cx="273.3910598754883" cy="98.77631378173828" r="2.0" stroke-width="0" fill="rgb(255,1,176)"/>
<circle cx="274.00052642822266" cy="96.31361961364746" r="2.0" stroke-width="0" fill="rgb(255,2,163)"/>
<circle cx="269.384033203125" cy="109.59520721435547" r="2.0" stroke-width="0" fill="rgb(255,8,195)"/>
<circle cx="272.2693786621094" cy="107.04545021057129" r="2.0" stroke-width="0" fill="rgb(255,8,225)"/>
<circle cx="267.4599380493164" cy="101.46241569519043" r="2.0" stroke-width="0" fill="rgb(255,9,196)"/>
<circle cx="269.4696960449219" cy="99.14549255371094" r="2.0" stroke-width="0" fill="rgb(240,16,255)"/>
<circle cx="268.2262725830078" cy="109.61421298980713" r="2.0" stroke-width="0" fill="rgb(255,8,175)"/>
<circle cx="272.7393264770508" cy="107.7314624786377" r="2.0" stroke-width="0" fill="rgb(255,16,141)"/>
<circle cx="272.6835403442383" cy="110.41520690917969" r="2.0" stroke-width="0" fill="rgb(255,27,0)"/>
<circle cx="275.1431198120117" cy="108.27961158752441" r="2.0" stroke-width="0" fill="rgb(255,33,3)"/>
<circle cx="275.94852447509766" cy="107.97030448913574" r="2.0" stroke-width="0" fill="rgb(255,4,169)"/>
<circle cx="279.06605529785156" cy="106.03366088867188" r="2.0" stroke-width="0" fill="rgb(255,7,209)"/>
<circle cx="290.86071014404297" cy="97.29934692382812" r="2.0" stroke-width="0" fill="rgb(255,7,196)"/>
<circle cx="294.5775833129883" cy="96.87767028808594" r="2.0" stroke-width="0" fill="rgb(255,11,135)"/>
<circle cx="289.5987014770508" cy="103.53152084350586" r="2.0" stroke-width="0" fill="rgb(255,5,9)"/>
<circle cx="291.2272644042969" cy="102.14387512207031" r="2.0" stroke-width="0" fill="rgb(255,6,39)"/>
<circle cx="283.38099670410156" cy="106.15051460266113" r="2.0" stroke-width="0" fill="rgb(255,2,114)"/>
<circle cx="283.9112854003906" cy="105.97195053100586" r="2.0" stroke-width="0" fill="rgb(255,4,94)"/>
<circle cx="282.21598052978516" cy="108.59795761108398" r="2.0" stroke-width="0" fill="rgb(255,12,111)"/>
<circle cx="285.0899429321289" cy="107.22672462463379" r="2.0" stroke-width="0" fill="rgb(255,11,126)"/>
<circle cx="302.72376251220703" cy="99.88490295410156" r="2.0" stroke-width="0" fill="rgb(255,9,170)"/>
<circle cx="305.03204345703125" cy="98.98929405212402" r="2.0" stroke-width="0" fill="rgb(255,8,92)"/>
<circle cx="300.76993560791016" cy="100.66694259643555" r="2.0" stroke-width="0" fill="rgb(255,2,187)"/>
<circle cx="303.53062438964844" cy="99.7491569519043" r="2.0" stroke-width="0" fill="rgb(255,7,155)"/>
<circle cx="298.79107666015625" cy="100.49328994750977" r="2.0" stroke-width="0" fill="rgb(255,38,0)"/>
<circle cx="299.3125534057617" cy="100.15327262878418" r="2.0" stroke-width="0" fill="rgb(255,38,0)"/>
<circle cx="296.6517028808594" cy="100.82637786865234" r="2.0" stroke-width="0" fill="rgb(255,4,187)"/>
<circle cx="299.56433868408203" cy="100.93472671508789" r="2.0" stroke-width="0" fill="rgb(255,17,142)"/>
<circle cx="276.42347717285156" cy="105.01895713806152" r="2.0" stroke-width="0" fill="rgb(255,49,125)"/>
<circle cx="276.4670639038086" cy="103.47627830505371" r="2.0" stroke-width="0" fill="rgb(255,194,173)"/>
<circle cx="270.4670181274414" cy="100.84666442871094" r="2.0" stroke-width="0" fill="rgb(226,3,255)"/>
<circle cx="272.00939178466797" cy="98.50735282897949" r="2.0" stroke-width="0" fill="rgb(255,39,224)"/>
<circle cx="272.3484115600586" cy="102.31520652770996" r="2.0" stroke-width="0" fill="rgb(255,15,124)"/>
<circle cx="273.3657989501953" cy="100.88800048828125" r="2.0" stroke-width="0" fill="rgb(255,19,191)"/>
<circle cx="216.61663055419922" cy="98.70498466491699" r="2.0" stroke-width="0" fill="rgb(255,44,0)"/>
<circle cx="234.54591369628906" cy="97.80002784729004" r="2.0" stroke-width="0" fill="rgb(255,24,0)"/>
<circle cx="198.44913578033447" cy="100.43747901916504" r="2.0" stroke-width="0" fill="rgb(0,146,255)"/>
<circle cx="227.13242721557617" cy="99.49722862243652" r="2.0" stroke-width="0" fill="rgb(0,255,184)"/>
<circle cx="241.70204544067383" cy="97.5936107635498" r="2.0" stroke-width="0" fill="rgb(0,127,255)"/>
<line x1="182.0" y1="127.08719635009766" x2="192.0" y2="127.08719635009766" style="stroke:green;stroke-width:1.0"/>
<line x1="182.0" y1="127.08719635009766" x2="182.0" y2="117.08719635009766" style="stroke:yellow;stroke-width:1.0"/>
<circle cx="182.0" cy="127.08719635009766" r="0.5" stroke-width="0" fill="red"/>
</svg>
