<?xml version='1.0' encoding='UTF-8'?>
<svg xmlns="http://www.w3.org/2000/svg" version="1.1" width="424" height="260" viewBox="0 0 424 260">
<!--
Rot z: 0.0, rot y: 90.0 of: Rot z: 90.0, rot y: 0.0 of: Rot z: 0.0, rot y: 90.0 of: View of network
[ 0, 0, 222, 140 ]
-->
<rect x="0.0" y="0.0" width="222.0" height="140.0" style="fill:none;stroke:black;stroke-width:1;"/>
<text x="25.0" y="115.0" fill="black" font-size="20px">
100.0 μm</text>
<circle cx="168.82540893554688" cy="105.18829917907715" r="2.0" stroke-width="0" fill="rgb(255,2,159)"/>
<circle cx="20.0" cy="100.72700309753417" r="2.0" stroke-width="0" fill="rgb(41,0,255)"/>
<circle cx="93.45914459228516" cy="99.8708667755127" r="2.0" stroke-width="0" fill="rgb(36,0,255)"/>
<circle cx="21.4210205078125" cy="99.78122711181639" r="2.0" stroke-width="0" fill="rgb(255,0,255)"/>
<circle cx="121.24620819091797" cy="102.07437801361084" r="2.0" stroke-width="0" fill="rgb(239,3,255)"/>
<circle cx="117.81256103515625" cy="103.43630504608154" r="2.0" stroke-width="0" fill="rgb(255,3,156)"/>
<circle cx="110.40706634521484" cy="101.11321449279785" r="2.0" stroke-width="0" fill="rgb(93,13,255)"/>
<circle cx="151.71273803710938" cy="102.26158237457275" r="2.0" stroke-width="0" fill="rgb(37,0,255)"/>
<circle cx="150.69263076782227" cy="99.23290061950684" r="2.0" stroke-width="0" fill="rgb(255,10,180)"/>
<circle cx="154.89339065551758" cy="98.59723854064941" r="2.0" stroke-width="0" fill="rgb(138,0,255)"/>
<circle cx="155.65814971923828" cy="94.64554023742676" r="2.0" stroke-width="0" fill="rgb(52,1,255)"/>
<circle cx="152.31534576416016" cy="106.79081630706787" r="2.0" stroke-width="0" fill="rgb(50,0,255)"/>
<circle cx="130.22846221923828" cy="102.93989944458008" r="2.0" stroke-width="0" fill="rgb(255,1,176)"/>
<circle cx="123.24296569824219" cy="104.5442419052124" r="2.0" stroke-width="0" fill="rgb(33,0,255)"/>
<circle cx="150.7395896911621" cy="93.76448822021484" r="2.0" stroke-width="0" fill="rgb(45,0,255)"/>
<circle cx="148.03989028930664" cy="107.25489139556885" r="2.0" stroke-width="0" fill="rgb(37,0,255)"/>
<circle cx="154.69968032836914" cy="93.67315292358398" r="2.0" stroke-width="0" fill="rgb(143,2,255)"/>
<circle cx="151.9866600036621" cy="108.0" r="2.0" stroke-width="0" fill="rgb(131,1,255)"/>
<circle cx="164.6224136352539" cy="95.24538040161133" r="2.0" stroke-width="0" fill="rgb(255,6,0)"/>
<circle cx="162.00994491577148" cy="106.36404514312744" r="2.0" stroke-width="0" fill="rgb(255,5,0)"/>
<circle cx="188.71051025390625" cy="98.70188331604004" r="2.0" stroke-width="0" fill="rgb(145,1,255)"/>
<circle cx="190.42428588867188" cy="103.44650077819824" r="2.0" stroke-width="0" fill="rgb(135,1,255)"/>
<circle cx="177.41045379638672" cy="96.25246047973633" r="2.0" stroke-width="0" fill="rgb(214,1,255)"/>
<circle cx="176.59345817565918" cy="106.24790096282959" r="2.0" stroke-width="0" fill="rgb(221,3,255)"/>
<circle cx="150.67588424682617" cy="94.53763008117676" r="2.0" stroke-width="0" fill="rgb(255,1,234)"/>
<circle cx="151.55974960327148" cy="105.94631958007812" r="2.0" stroke-width="0" fill="rgb(255,1,204)"/>
<circle cx="158.03142547607422" cy="94.59047889709473" r="2.0" stroke-width="0" fill="rgb(230,0,255)"/>
<circle cx="159.02686309814453" cy="94.99763679504395" r="2.0" stroke-width="0" fill="rgb(251,3,255)"/>
<circle cx="155.2726287841797" cy="106.67190361022949" r="2.0" stroke-width="0" fill="rgb(233,4,255)"/>
<circle cx="177.2930088043213" cy="97.08889961242676" r="2.0" stroke-width="0" fill="rgb(0,1,255)"/>
<circle cx="183.10881805419922" cy="104.13012409210205" r="2.0" stroke-width="0" fill="rgb(0,2,255)"/>
<circle cx="105.35826873779297" cy="99.18944549560547" r="2.0" stroke-width="0" fill="rgb(255,6,152)"/>
<circle cx="110.78880310058594" cy="103.43063163757324" r="2.0" stroke-width="0" fill="rgb(255,8,193)"/>
<circle cx="147.54071044921875" cy="93.09683799743652" r="2.0" stroke-width="0" fill="rgb(10,2,255)"/>
<circle cx="145.58404541015625" cy="107.02354431152344" r="2.0" stroke-width="0" fill="rgb(0,0,255)"/>
<circle cx="167.77046585083008" cy="105.25254917144775" r="2.0" stroke-width="0" fill="rgb(255,6,174)"/>
<circle cx="104.21788787841797" cy="102.59718036651611" r="2.0" stroke-width="0" fill="rgb(109,1,255)"/>
<circle cx="165.2518081665039" cy="95.79961013793945" r="2.0" stroke-width="0" fill="rgb(154,1,255)"/>
<circle cx="165.02918243408203" cy="105.49374103546143" r="2.0" stroke-width="0" fill="rgb(156,1,255)"/>
<circle cx="58.274444580078125" cy="99.7656192779541" r="2.0" stroke-width="0" fill="rgb(255,1,47)"/>
<circle cx="111.48539733886719" cy="98.26526069641113" r="2.0" stroke-width="0" fill="rgb(255,1,40)"/>
<circle cx="25.406524658203125" cy="100.46493339538573" r="2.0" stroke-width="0" fill="rgb(0,2,255)"/>
<circle cx="100.35270690917969" cy="99.6388111114502" r="2.0" stroke-width="0" fill="rgb(0,4,255)"/>
<circle cx="119.13639831542969" cy="104.33706855773926" r="2.0" stroke-width="0" fill="rgb(111,27,255)"/>
<line x1="202.42428588867188" y1="120.0" x2="102.42428588867188" y2="120.0" style="stroke:green;stroke-width:3.0"/>
<circle cx="202.42428588867188" cy="120.0" r="1.5" stroke-width="0" fill="yellow"/>
<line x1="202.42428588867188" y1="120.0" x2="202.42428588867188" y2="20.0" style="stroke:red;stroke-width:3.0"/>
<!--
Rot z: 0.0, rot y: 90.0 of: View of network
[ 0, 140, 140, 140 ]
-->
<rect x="0.0" y="140.0" width="140.0" height="140.0" style="fill:none;stroke:black;stroke-width:1;"/>
<circle cx="34.81170082092285" cy="237.71613693237305" r="2.0" stroke-width="0" fill="rgb(255,2,159)"/>
<circle cx="39.272996902465835" cy="241.00300788879395" r="2.0" stroke-width="0" fill="rgb(41,0,255)"/>
<circle cx="40.12913322448731" cy="247.45116806030273" r="2.0" stroke-width="0" fill="rgb(36,0,255)"/>
<circle cx="40.21877288818361" cy="241.06728553771973" r="2.0" stroke-width="0" fill="rgb(255,0,255)"/>
<circle cx="37.92562198638917" cy="245.6617841720581" r="2.0" stroke-width="0" fill="rgb(239,3,255)"/>
<circle cx="36.563694953918464" cy="246.94897174835205" r="2.0" stroke-width="0" fill="rgb(255,3,156)"/>
<circle cx="38.886785507202156" cy="245.77843379974365" r="2.0" stroke-width="0" fill="rgb(93,13,255)"/>
<circle cx="37.738417625427246" cy="236.42504501342773" r="2.0" stroke-width="0" fill="rgb(37,0,255)"/>
<circle cx="40.767099380493164" cy="235.7352352142334" r="2.0" stroke-width="0" fill="rgb(255,10,180)"/>
<circle cx="41.402761459350586" cy="235.8207550048828" r="2.0" stroke-width="0" fill="rgb(138,0,255)"/>
<circle cx="45.35445976257324" cy="243.0977029800415" r="2.0" stroke-width="0" fill="rgb(52,1,255)"/>
<circle cx="33.20918369293213" cy="242.55133247375488" r="2.0" stroke-width="0" fill="rgb(50,0,255)"/>
<circle cx="37.06010055541992" cy="246.63193130493164" r="2.0" stroke-width="0" fill="rgb(255,1,176)"/>
<circle cx="35.455758094787605" cy="246.44426155090332" r="2.0" stroke-width="0" fill="rgb(33,0,255)"/>
<circle cx="46.235511779785156" cy="245.4380111694336" r="2.0" stroke-width="0" fill="rgb(45,0,255)"/>
<circle cx="32.74510860443115" cy="244.49247550964355" r="2.0" stroke-width="0" fill="rgb(37,0,255)"/>
<circle cx="46.326847076416016" cy="243.89444732666016" r="2.0" stroke-width="0" fill="rgb(143,2,255)"/>
<circle cx="32.0" cy="243.45333099365234" r="2.0" stroke-width="0" fill="rgb(131,1,255)"/>
<circle cx="44.75461959838867" cy="245.74239540100098" r="2.0" stroke-width="0" fill="rgb(255,6,0)"/>
<circle cx="33.63595485687256" cy="245.0924310684204" r="2.0" stroke-width="0" fill="rgb(255,5,0)"/>
<circle cx="41.29811668395996" cy="246.5730333328247" r="2.0" stroke-width="0" fill="rgb(145,1,255)"/>
<circle cx="36.55349922180176" cy="244.4042625427246" r="2.0" stroke-width="0" fill="rgb(135,1,255)"/>
<circle cx="43.74753952026367" cy="247.8986053466797" r="2.0" stroke-width="0" fill="rgb(214,1,255)"/>
<circle cx="33.75209903717041" cy="248.0" r="2.0" stroke-width="0" fill="rgb(221,3,255)"/>
<circle cx="45.46236991882324" cy="245.40761375427246" r="2.0" stroke-width="0" fill="rgb(255,1,234)"/>
<circle cx="34.053680419921875" cy="244.86107921600342" r="2.0" stroke-width="0" fill="rgb(255,1,204)"/>
<circle cx="45.40952110290527" cy="245.05701637268066" r="2.0" stroke-width="0" fill="rgb(230,0,255)"/>
<circle cx="45.002363204956055" cy="243.38008880615234" r="2.0" stroke-width="0" fill="rgb(251,3,255)"/>
<circle cx="33.32809638977051" cy="243.37373733520508" r="2.0" stroke-width="0" fill="rgb(233,4,255)"/>
<circle cx="42.91110038757324" cy="245.8909683227539" r="2.0" stroke-width="0" fill="rgb(0,1,255)"/>
<circle cx="35.86987590789795" cy="243.270339012146" r="2.0" stroke-width="0" fill="rgb(0,2,255)"/>
<circle cx="40.81055450439454" cy="246.96908855438232" r="2.0" stroke-width="0" fill="rgb(255,6,152)"/>
<circle cx="36.569368362426765" cy="245.95736694335938" r="2.0" stroke-width="0" fill="rgb(255,8,193)"/>
<circle cx="46.90316200256348" cy="242.1016387939453" r="2.0" stroke-width="0" fill="rgb(10,2,255)"/>
<circle cx="32.97645568847656" cy="241.56475257873535" r="2.0" stroke-width="0" fill="rgb(0,0,255)"/>
<circle cx="34.747450828552246" cy="242.75324535369873" r="2.0" stroke-width="0" fill="rgb(255,6,174)"/>
<circle cx="37.402819633483894" cy="246.26058864593506" r="2.0" stroke-width="0" fill="rgb(109,1,255)"/>
<circle cx="44.20038986206055" cy="243.12865257263184" r="2.0" stroke-width="0" fill="rgb(154,1,255)"/>
<circle cx="34.506258964538574" cy="242.72813415527344" r="2.0" stroke-width="0" fill="rgb(156,1,255)"/>
<circle cx="40.234380722045906" cy="244.18493270874023" r="2.0" stroke-width="0" fill="rgb(255,1,47)"/>
<circle cx="41.734739303588874" cy="246.7362699508667" r="2.0" stroke-width="0" fill="rgb(255,1,40)"/>
<circle cx="39.53506660461427" cy="240.47135543823242" r="2.0" stroke-width="0" fill="rgb(0,2,255)"/>
<circle cx="40.36118888854981" cy="246.99085903167725" r="2.0" stroke-width="0" fill="rgb(0,4,255)"/>
<circle cx="35.66293144226075" cy="245.45666885375977" r="2.0" stroke-width="0" fill="rgb(111,27,255)"/>
<line x1="20.0" y1="260.0" x2="20.000000000000007" y2="260.0" style="stroke:green;stroke-width:3.0"/>
<line x1="20.0" y1="260.0" x2="20.0" y2="160.0" style="stroke:yellow;stroke-width:3.0"/>
<line x1="20.0" y1="260.0" x2="120.0" y2="260.0" style="stroke:red;stroke-width:3.0"/>
<!--
Rot z: 0.0, rot y: 0.0 of: View of network
[ 222, 0, 222, 140 ]
-->
<rect x="222.0" y="0.0" width="222.0" height="140.0" style="fill:none;stroke:black;stroke-width:1;"/>
<circle cx="275.598876953125" cy="97.71613693237305" r="2.0" stroke-width="0" fill="rgb(255,2,159)"/>
<circle cx="424.4242858886719" cy="101.00300788879395" r="2.0" stroke-width="0" fill="rgb(41,0,255)"/>
<circle cx="350.9651412963867" cy="107.45116806030273" r="2.0" stroke-width="0" fill="rgb(36,0,255)"/>
<circle cx="423.0032653808594" cy="101.06728553771973" r="2.0" stroke-width="0" fill="rgb(255,0,255)"/>
<circle cx="323.1780776977539" cy="105.6617841720581" r="2.0" stroke-width="0" fill="rgb(239,3,255)"/>
<circle cx="326.6117248535156" cy="106.94897174835205" r="2.0" stroke-width="0" fill="rgb(255,3,156)"/>
<circle cx="334.01721954345703" cy="105.77843379974365" r="2.0" stroke-width="0" fill="rgb(93,13,255)"/>
<circle cx="292.7115478515625" cy="96.42504501342773" r="2.0" stroke-width="0" fill="rgb(37,0,255)"/>
<circle cx="293.7316551208496" cy="95.7352352142334" r="2.0" stroke-width="0" fill="rgb(255,10,180)"/>
<circle cx="289.5308952331543" cy="95.82075500488281" r="2.0" stroke-width="0" fill="rgb(138,0,255)"/>
<circle cx="288.7661361694336" cy="103.0977029800415" r="2.0" stroke-width="0" fill="rgb(52,1,255)"/>
<circle cx="292.1089401245117" cy="102.55133247375488" r="2.0" stroke-width="0" fill="rgb(50,0,255)"/>
<circle cx="314.1958236694336" cy="106.63193130493164" r="2.0" stroke-width="0" fill="rgb(255,1,176)"/>
<circle cx="321.1813201904297" cy="106.44426155090332" r="2.0" stroke-width="0" fill="rgb(33,0,255)"/>
<circle cx="293.68469619750977" cy="105.4380111694336" r="2.0" stroke-width="0" fill="rgb(45,0,255)"/>
<circle cx="296.38439559936523" cy="104.49247550964355" r="2.0" stroke-width="0" fill="rgb(37,0,255)"/>
<circle cx="289.72460556030273" cy="103.89444732666016" r="2.0" stroke-width="0" fill="rgb(143,2,255)"/>
<circle cx="292.43762588500977" cy="103.45333099365234" r="2.0" stroke-width="0" fill="rgb(131,1,255)"/>
<circle cx="279.80187225341797" cy="105.74239540100098" r="2.0" stroke-width="0" fill="rgb(255,6,0)"/>
<circle cx="282.4143409729004" cy="105.09243106842041" r="2.0" stroke-width="0" fill="rgb(255,5,0)"/>
<circle cx="255.71377563476562" cy="106.5730333328247" r="2.0" stroke-width="0" fill="rgb(145,1,255)"/>
<circle cx="254.0" cy="104.40426254272461" r="2.0" stroke-width="0" fill="rgb(135,1,255)"/>
<circle cx="267.01383209228516" cy="107.89860534667969" r="2.0" stroke-width="0" fill="rgb(214,1,255)"/>
<circle cx="267.8308277130127" cy="108.0" r="2.0" stroke-width="0" fill="rgb(221,3,255)"/>
<circle cx="293.7484016418457" cy="105.40761375427246" r="2.0" stroke-width="0" fill="rgb(255,1,234)"/>
<circle cx="292.8645362854004" cy="104.86107921600342" r="2.0" stroke-width="0" fill="rgb(255,1,204)"/>
<circle cx="286.39286041259766" cy="105.05701637268066" r="2.0" stroke-width="0" fill="rgb(230,0,255)"/>
<circle cx="285.39742279052734" cy="103.38008880615234" r="2.0" stroke-width="0" fill="rgb(251,3,255)"/>
<circle cx="289.1516571044922" cy="103.37373733520508" r="2.0" stroke-width="0" fill="rgb(233,4,255)"/>
<circle cx="267.1312770843506" cy="105.8909683227539" r="2.0" stroke-width="0" fill="rgb(0,1,255)"/>
<circle cx="261.31546783447266" cy="103.270339012146" r="2.0" stroke-width="0" fill="rgb(0,2,255)"/>
<circle cx="339.0660171508789" cy="106.96908855438232" r="2.0" stroke-width="0" fill="rgb(255,6,152)"/>
<circle cx="333.63548278808594" cy="105.95736694335938" r="2.0" stroke-width="0" fill="rgb(255,8,193)"/>
<circle cx="296.8835754394531" cy="102.10163879394531" r="2.0" stroke-width="0" fill="rgb(10,2,255)"/>
<circle cx="298.8402404785156" cy="101.56475257873535" r="2.0" stroke-width="0" fill="rgb(0,0,255)"/>
<circle cx="276.6538200378418" cy="102.75324535369873" r="2.0" stroke-width="0" fill="rgb(255,6,174)"/>
<circle cx="340.2063980102539" cy="106.26058864593506" r="2.0" stroke-width="0" fill="rgb(109,1,255)"/>
<circle cx="279.17247772216797" cy="103.12865257263184" r="2.0" stroke-width="0" fill="rgb(154,1,255)"/>
<circle cx="279.39510345458984" cy="102.72813415527344" r="2.0" stroke-width="0" fill="rgb(156,1,255)"/>
<circle cx="386.14984130859375" cy="104.18493270874023" r="2.0" stroke-width="0" fill="rgb(255,1,47)"/>
<circle cx="332.9388885498047" cy="106.7362699508667" r="2.0" stroke-width="0" fill="rgb(255,1,40)"/>
<circle cx="419.01776123046875" cy="100.47135543823242" r="2.0" stroke-width="0" fill="rgb(0,2,255)"/>
<circle cx="344.0715789794922" cy="106.99085903167725" r="2.0" stroke-width="0" fill="rgb(0,4,255)"/>
<circle cx="325.2878875732422" cy="105.45666885375977" r="2.0" stroke-width="0" fill="rgb(111,27,255)"/>
<line x1="242.0" y1="120.0" x2="342.0" y2="120.0" style="stroke:green;stroke-width:3.0"/>
<line x1="242.0" y1="120.0" x2="242.0" y2="20.0" style="stroke:yellow;stroke-width:3.0"/>
<circle cx="242.0" cy="120.0" r="1.5" stroke-width="0" fill="red"/>
<!--
Rot z: -10.0, rot y: -20.0 of: View of network
[ 222, 140, 210, 86 ]
-->
<rect x="222.0" y="140.0" width="210.0" height="86.0" style="fill:none;stroke:black;stroke-width:1;"/>
<circle cx="270.6627860857218" cy="168.0183248538998" r="2.0" stroke-width="0" fill="rgb(255,2,159)"/>
<circle cx="406.32609551315846" cy="197.09852190712718" r="2.0" stroke-width="0" fill="rgb(41,0,255)"/>
<circle cx="337.00078499360046" cy="190.69267344527168" r="2.0" stroke-width="0" fill="rgb(36,0,255)"/>
<circle cx="404.67709657486455" cy="196.91506541252573" r="2.0" stroke-width="0" fill="rgb(255,0,255)"/>
<circle cx="312.3318052502822" cy="184.1053013623956" r="2.0" stroke-width="0" fill="rgb(239,3,255)"/>
<circle cx="315.76512772583504" cy="185.96918023846013" r="2.0" stroke-width="0" fill="rgb(255,3,156)"/>
<circle cx="322.01475511547414" cy="186.102376049106" r="2.0" stroke-width="0" fill="rgb(93,13,255)"/>
<circle cx="285.70881443513383" cy="169.71843163879868" r="2.0" stroke-width="0" fill="rgb(37,0,255)"/>
<circle cx="285.7295287884364" cy="169.21624136878478" r="2.0" stroke-width="0" fill="rgb(255,10,180)"/>
<circle cx="281.610711941413" cy="168.57100762233767" r="2.0" stroke-width="0" fill="rgb(138,0,255)"/>
<circle cx="278.3640081889595" cy="175.60460338877107" r="2.0" stroke-width="0" fill="rgb(52,1,255)"/>
<circle cx="285.7005779545905" cy="175.6470052932599" r="2.0" stroke-width="0" fill="rgb(50,0,255)"/>
<circle cx="304.1571995825887" cy="183.50095773705272" r="2.0" stroke-width="0" fill="rgb(255,1,176)"/>
<circle cx="311.2010344929032" cy="184.52915784924943" r="2.0" stroke-width="0" fill="rgb(33,0,255)"/>
<circle cx="282.23250572236975" cy="178.76345602374317" r="2.0" stroke-width="0" fill="rgb(45,0,255)"/>
<circle cx="289.49913057592113" cy="178.30108305661315" r="2.0" stroke-width="0" fill="rgb(37,0,255)"/>
<circle cx="278.78840611998226" cy="176.5556798615637" r="2.0" stroke-width="0" fill="rgb(143,2,255)"/>
<circle cx="286.2711299560475" cy="176.592376112196" r="2.0" stroke-width="0" fill="rgb(131,1,255)"/>
<circle cx="269.8419370713223" cy="176.65248889612303" r="2.0" stroke-width="0" fill="rgb(255,6,0)"/>
<circle cx="276.1684247655564" cy="176.46604941456627" r="2.0" stroke-width="0" fill="rgb(255,5,0)"/>
<circle cx="248.5970666391845" cy="173.28765349003515" r="2.0" stroke-width="0" fill="rgb(145,1,255)"/>
<circle cx="248.98775614933606" cy="170.85423718553113" r="2.0" stroke-width="0" fill="rgb(135,1,255)"/>
<circle cx="258.00027285109473" cy="176.55532129783722" r="2.0" stroke-width="0" fill="rgb(214,1,255)"/>
<circle cx="262.1584309646826" cy="176.7970453392423" r="2.0" stroke-width="0" fill="rgb(221,3,255)"/>
<circle cx="282.5608500127057" cy="178.7445827479374" r="2.0" stroke-width="0" fill="rgb(255,1,234)"/>
<circle cx="285.73408924761765" cy="178.05286968891141" r="2.0" stroke-width="0" fill="rgb(255,1,204)"/>
<circle cx="275.82919462285594" cy="177.1220353981471" r="2.0" stroke-width="0" fill="rgb(230,0,255)"/>
<circle cx="275.32089053087196" cy="175.2977282003365" r="2.0" stroke-width="0" fill="rgb(251,3,255)"/>
<circle cx="282.7889920206178" cy="175.94338916965927" r="2.0" stroke-width="0" fill="rgb(233,4,255)"/>
<circle cx="258.7226354265187" cy="174.59857890028906" r="2.0" stroke-width="0" fill="rgb(0,1,255)"/>
<circle cx="256.1764533111942" cy="171.00785815953157" r="2.0" stroke-width="0" fill="rgb(0,2,255)"/>
<circle cx="325.834742199742" cy="188.15165658657298" r="2.0" stroke-width="0" fill="rgb(255,6,152)"/>
<circle cx="322.4248953587238" cy="186.21230290429094" r="2.0" stroke-width="0" fill="rgb(255,8,193)"/>
<circle cx="285.50886738263347" cy="176.0332501923666" r="2.0" stroke-width="0" fill="rgb(10,2,255)"/>
<circle cx="292.17041863511247" cy="175.84429180348025" r="2.0" stroke-width="0" fill="rgb(0,0,255)"/>
<circle cx="270.83908794089024" cy="173.16209722418785" r="2.0" stroke-width="0" fill="rgb(255,6,174)"/>
<circle cx="328.17119363978276" cy="187.6519454418024" r="2.0" stroke-width="0" fill="rgb(109,1,255)"/>
<circle cx="269.87554253917875" cy="173.96916148097995" r="2.0" stroke-width="0" fill="rgb(154,1,255)"/>
<circle cx="273.4625070794197" cy="173.61338639107805" r="2.0" stroke-width="0" fill="rgb(156,1,255)"/>
<circle cx="370.0582638562444" cy="193.5858185867678" r="2.0" stroke-width="0" fill="rgb(255,1,47)"/>
<circle cx="319.8864963846147" cy="186.85841030487785" r="2.0" stroke-width="0" fill="rgb(255,1,40)"/>
<circle cx="401.3199277188922" cy="195.63611329749796" r="2.0" stroke-width="0" fill="rgb(0,2,255)"/>
<circle cx="330.61711177500626" cy="189.04230301113768" r="2.0" stroke-width="0" fill="rgb(0,4,255)"/>
<circle cx="315.09161390948947" cy="184.26966684677603" r="2.0" stroke-width="0" fill="rgb(111,27,255)"/>
<line x1="248.4652621774251" y1="176.0176664619429" x2="409.8803880140908" y2="206.30612584736645" style="stroke:green;stroke-width:1.0"/>
<line x1="251.11927999125194" y1="160.0" x2="412.5344058279176" y2="190.28845938542355" style="stroke:green;stroke-width:1.0"/>
<line x1="244.65401781382684" y1="160.0" x2="406.06914365049255" y2="190.28845938542355" style="stroke:green;stroke-width:1.0"/>
<line x1="242.0" y1="176.0176664619429" x2="403.4151258366657" y2="206.30612584736645" style="stroke:green;stroke-width:1.0"/>
<line x1="248.4652621774251" y1="176.0176664619429" x2="251.11927999125194" y2="160.0" style="stroke:yellow;stroke-width:1.0"/>
<line x1="409.8803880140908" y1="206.30612584736645" x2="412.5344058279176" y2="190.28845938542355" style="stroke:yellow;stroke-width:1.0"/>
<line x1="242.0" y1="176.0176664619429" x2="244.65401781382684" y2="160.0" style="stroke:yellow;stroke-width:1.0"/>
<line x1="403.4151258366657" y1="206.30612584736645" x2="406.06914365049255" y2="190.28845938542355" style="stroke:yellow;stroke-width:1.0"/>
<line x1="248.4652621774251" y1="176.0176664619429" x2="242.0" y2="176.0176664619429" style="stroke:red;stroke-width:1.0"/>
<line x1="409.8803880140908" y1="206.30612584736645" x2="403.4151258366657" y2="206.30612584736645" style="stroke:red;stroke-width:1.0"/>
<line x1="251.11927999125194" y1="160.0" x2="244.65401781382684" y2="160.0" style="stroke:red;stroke-width:1.0"/>
<line x1="412.5344058279176" y1="190.28845938542355" x2="406.06914365049255" y2="190.28845938542355" style="stroke:red;stroke-width:1.0"/>
</svg>
